<svg width="40" height="41" viewBox="0 0 40 41" fill="none" xmlns="http://www.w3.org/2000/svg">
<path d="M15 24.4165C14.4167 24.4165 13.9236 24.2151 13.5208 23.8123C13.1181 23.4096 12.9167 22.9165 12.9167 22.3332C12.9167 21.7498 13.1181 21.2568 13.5208 20.854C13.9236 20.4512 14.4167 20.2498 15 20.2498C15.5833 20.2498 16.0764 20.4512 16.4792 20.854C16.8819 21.2568 17.0833 21.7498 17.0833 22.3332C17.0833 22.9165 16.8819 23.4096 16.4792 23.8123C16.0764 24.2151 15.5833 24.4165 15 24.4165ZM25 24.4165C24.4167 24.4165 23.9236 24.2151 23.5208 23.8123C23.1181 23.4096 22.9167 22.9165 22.9167 22.3332C22.9167 21.7498 23.1181 21.2568 23.5208 20.854C23.9236 20.4512 24.4167 20.2498 25 20.2498C25.5833 20.2498 26.0764 20.4512 26.4792 20.854C26.8819 21.2568 27.0833 21.7498 27.0833 22.3332C27.0833 22.9165 26.8819 23.4096 26.4792 23.8123C26.0764 24.2151 25.5833 24.4165 25 24.4165ZM20 33.9998C23.7222 33.9998 26.875 32.7082 29.4583 30.1248C32.0417 27.5415 33.3333 24.3887 33.3333 20.6665C33.3333 19.9998 33.2917 19.354 33.2083 18.729C33.125 18.104 32.9722 17.4998 32.75 16.9165C32.1667 17.0554 31.5833 17.1596 31 17.229C30.4167 17.2984 29.8056 17.3332 29.1667 17.3332C26.6389 17.3332 24.25 16.7915 22 15.7082C19.75 14.6248 17.8333 13.1109 16.25 11.1665C15.3611 13.3332 14.0903 15.2151 12.4375 16.8123C10.7847 18.4096 8.86111 19.6109 6.66667 20.4165V20.6665C6.66667 24.3887 7.95833 27.5415 10.5417 30.1248C13.125 32.7082 16.2778 33.9998 20 33.9998ZM20.0054 35.6665C17.9313 35.6665 15.9811 35.2729 14.155 34.4857C12.3292 33.6985 10.7408 32.6301 9.39 31.2807C8.03917 29.9312 6.96986 28.3443 6.18208 26.5198C5.39403 24.6957 5 22.7464 5 20.6719C5 18.5978 5.39361 16.6476 6.18083 14.8215C6.96806 12.9957 8.03639 11.4073 9.38583 10.0565C10.7353 8.70567 12.3222 7.63636 14.1467 6.84859C15.9708 6.06053 17.9201 5.6665 19.9946 5.6665C22.0688 5.6665 24.0189 6.06012 25.845 6.84734C27.6708 7.63456 29.2592 8.70289 30.61 10.0523C31.9608 11.4018 33.0301 12.9887 33.8179 14.8132C34.606 16.6373 35 18.5866 35 20.6611C35 22.7353 34.6064 24.6854 33.8192 26.5115C33.0319 28.3373 31.9636 29.9257 30.6142 31.2765C29.2647 32.6273 27.6778 33.6966 25.8533 34.4844C24.0292 35.2725 22.0799 35.6665 20.0054 35.6665ZM16.1796 7.86192C17.5385 10.5755 19.4583 12.5547 21.9392 13.7994C24.42 15.0441 26.8292 15.6665 29.1667 15.6665C29.6839 15.6665 30.1925 15.6404 30.6925 15.5882C31.1925 15.5357 31.6903 15.4496 32.1858 15.3298C31.1261 12.8512 29.484 10.8989 27.2596 9.47275C25.0351 8.04636 22.6153 7.33317 20 7.33317C19.2692 7.33317 18.6004 7.37539 17.9938 7.45984C17.3868 7.54428 16.7821 7.67831 16.1796 7.86192ZM6.89417 18.5094C8.61 17.7466 10.3483 16.4966 12.1092 14.7594C13.8697 13.0222 14.8964 10.8384 15.1892 8.20817C12.9606 9.0565 11.1154 10.3919 9.65375 12.2144C8.19236 14.0372 7.2725 16.1355 6.89417 18.5094Z" fill="#222222"/>
</svg>
