<svg width="40" height="41" viewBox="0 0 40 41" fill="none" xmlns="http://www.w3.org/2000/svg">
<path d="M20 30.6666C23.7223 30.6666 26.875 29.368 29.4584 26.7708C32.0417 24.1735 33.3334 21.0277 33.3334 17.3333C33.3334 16.2585 33.2159 15.2345 32.9809 14.2612C32.7459 13.2878 32.4114 12.3727 31.9775 11.5158C31.3131 11.9455 30.6016 12.2746 29.843 12.5033C29.0843 12.7319 28.3034 12.8462 27.5 12.8462C25.9145 12.8462 24.4567 12.4417 23.1267 11.6328C21.7964 10.8242 20.7542 9.72006 20 8.32034C19.2673 9.72006 18.2305 10.8242 16.8896 11.6328C15.5488 12.4417 14.0856 12.8462 12.5 12.8462C11.6967 12.8462 10.921 12.7319 10.173 12.5033C9.42518 12.2746 8.71907 11.9562 8.05462 11.5478C7.62073 12.4262 7.28101 13.352 7.03546 14.3253C6.78962 15.2987 6.66671 16.3013 6.66671 17.3333C6.66671 21.0277 7.96532 24.1735 10.5625 26.7708C13.1598 29.368 16.3056 30.6666 20 30.6666ZM15 21.0833C15.5834 21.0833 16.0764 20.8819 16.4792 20.4791C16.882 20.0763 17.0834 19.5833 17.0834 18.9999C17.0834 18.4166 16.882 17.9235 16.4792 17.5208C16.0764 17.118 15.5834 16.9166 15 16.9166C14.4167 16.9166 13.9237 17.118 13.5209 17.5208C13.1181 17.9235 12.9167 18.4166 12.9167 18.9999C12.9167 19.5833 13.1181 20.0763 13.5209 20.4791C13.9237 20.8819 14.4167 21.0833 15 21.0833ZM25 21.0833C25.5834 21.0833 26.0764 20.8819 26.4792 20.4791C26.882 20.0763 27.0834 19.5833 27.0834 18.9999C27.0834 18.4166 26.882 17.9235 26.4792 17.5208C26.0764 17.118 25.5834 16.9166 25 16.9166C24.4167 16.9166 23.9237 17.118 23.5209 17.5208C23.1181 17.9235 22.9167 18.4166 22.9167 18.9999C22.9167 19.5833 23.1181 20.0763 23.5209 20.4791C23.9237 20.8819 24.4167 21.0833 25 21.0833ZM12.5 11.1795C14.3462 11.1795 15.9188 10.5299 17.218 9.23075C18.5171 7.93158 19.1667 6.35895 19.1667 4.51284V4.01909C17.0428 4.15575 15.0824 4.76908 13.2855 5.85908C11.4882 6.94881 10.0192 8.35047 8.87837 10.0641C9.42115 10.4188 9.99698 10.6934 10.6059 10.8878C11.2148 11.0823 11.8462 11.1795 12.5 11.1795ZM27.5 11.1795C28.1539 11.1795 28.7907 11.0785 29.4105 10.8766C30.0299 10.6746 30.611 10.3931 31.1538 10.032C30.0341 8.33978 28.5774 6.97547 26.7838 5.93908C24.9899 4.9027 23.0064 4.27339 20.8334 4.05117V4.51284C20.8334 6.35895 21.483 7.93158 22.7821 9.23075C24.0813 10.5299 25.6539 11.1795 27.5 11.1795ZM5.42962 35.6666C4.64962 35.6666 3.99046 35.3749 3.45212 34.7916C2.91351 34.2083 2.67518 33.5266 2.73712 32.7466L4.14087 17.4103C4.34198 15.312 4.88851 13.3451 5.78046 11.5095C6.67268 9.67395 7.82434 8.07728 9.23546 6.7195C10.6468 5.36145 12.273 4.29089 14.1138 3.50784C15.9546 2.72478 17.9167 2.33325 20 2.33325C22.0834 2.33325 24.0455 2.72478 25.8863 3.50784C27.7271 4.29089 29.3532 5.36145 30.7646 6.7195C32.1757 8.07728 33.3274 9.67395 34.2196 11.5095C35.1116 13.3451 35.6581 15.312 35.8592 17.4103L37.263 32.7466C37.3249 33.5266 37.0866 34.2083 36.548 34.7916C36.0096 35.3749 35.3505 35.6666 34.5705 35.6666H5.42962ZM20 32.3333C16.4637 32.3333 13.3546 31.2451 10.673 29.0687C7.99157 26.8926 6.26087 24.1624 5.48087 20.8783L4.40379 32.8783C4.36101 33.1774 4.44657 33.4391 4.66046 33.6632C4.87407 33.8877 5.13046 33.9999 5.42962 33.9999H34.5705C34.8696 33.9999 35.126 33.8877 35.3396 33.6632C35.5535 33.4391 35.6391 33.1774 35.5963 32.8783L34.5192 20.9103C33.7392 24.1945 32.01 26.9194 29.3317 29.0849C26.6534 31.2505 23.5428 32.3333 20 32.3333ZM20 33.9999H35.5963H4.40379H20Z" fill="#222222"/>
</svg>
