<svg width="30" height="30" viewBox="0 0 30 30" fill="none" xmlns="http://www.w3.org/2000/svg">
<path d="M7.01937 26.25C6.46 26.25 5.98354 26.0533 5.59 25.66C5.19667 25.2665 5 24.79 5 24.2306V10.7694C5 10.21 5.19667 9.73354 5.59 9.34C5.98354 8.94667 6.46 8.75 7.01937 8.75H10C10 7.35729 10.4852 6.17583 11.4556 5.20563C12.4258 4.23521 13.6073 3.75 15 3.75C16.3927 3.75 17.5742 4.23521 18.5444 5.20563C19.5148 6.17583 20 7.35729 20 8.75H22.9806C23.54 8.75 24.0165 8.94667 24.41 9.34C24.8033 9.73354 25 10.21 25 10.7694V24.2306C25 24.79 24.8033 25.2665 24.41 25.66C24.0165 26.0533 23.54 26.25 22.9806 26.25H7.01937ZM7.01937 25H22.9806C23.1731 25 23.3495 24.9199 23.5097 24.7597C23.6699 24.5995 23.75 24.4231 23.75 24.2306V10.7694C23.75 10.5769 23.6699 10.4005 23.5097 10.2403C23.3495 10.0801 23.1731 10 22.9806 10H7.01937C6.82687 10 6.65052 10.0801 6.49031 10.2403C6.3301 10.4005 6.25 10.5769 6.25 10.7694V24.2306C6.25 24.4231 6.3301 24.5995 6.49031 24.7597C6.65052 24.9199 6.82687 25 7.01937 25ZM15 16.25C16.3927 16.25 17.5742 15.7648 18.5444 14.7944C19.5148 13.8242 20 12.6427 20 11.25H18.75C18.75 12.2917 18.3854 13.1771 17.6562 13.9062C16.9271 14.6354 16.0417 15 15 15C13.9583 15 13.0729 14.6354 12.3438 13.9062C11.6146 13.1771 11.25 12.2917 11.25 11.25H10C10 12.6427 10.4852 13.8242 11.4556 14.7944C12.4258 15.7648 13.6073 16.25 15 16.25ZM11.25 8.75H18.75C18.75 7.70833 18.3854 6.82292 17.6562 6.09375C16.9271 5.36458 16.0417 5 15 5C13.9583 5 13.0729 5.36458 12.3438 6.09375C11.6146 6.82292 11.25 7.70833 11.25 8.75Z" fill="#222222"/>
</svg>
