<svg width="30" height="30" viewBox="0 0 30 30" fill="none" xmlns="http://www.w3.org/2000/svg">
<path d="M14.9759 25V23.75H22.9806C23.1731 23.75 23.3495 23.6699 23.5097 23.5097C23.6699 23.3495 23.75 23.1731 23.75 22.9806V7.01937C23.75 6.82687 23.6699 6.65052 23.5097 6.49031C23.3495 6.3301 23.1731 6.25 22.9806 6.25H14.9759V5H22.9806C23.556 5 24.0365 5.19271 24.4219 5.57812C24.8073 5.96354 25 6.44396 25 7.01937V22.9806C25 23.556 24.8073 24.0365 24.4219 24.4219C24.0365 24.8073 23.556 25 22.9806 25H14.9759ZM14.0866 19.4231L13.2091 18.5241L16.1081 15.625H5V14.375H16.1081L13.2091 11.4759L14.0866 10.5769L18.5097 15L14.0866 19.4231Z" fill="#222222"/>
</svg>
