<svg width="25" height="25" viewBox="0 0 25 25" fill="none" xmlns="http://www.w3.org/2000/svg">
<path fill-rule="evenodd" clip-rule="evenodd" d="M24.2134 12.6665C24.2134 19.2939 18.8408 24.6665 12.2134 24.6665C5.58596 24.6665 0.213379 19.2939 0.213379 12.6665C0.213379 6.03909 5.58596 0.666504 12.2134 0.666504C18.8408 0.666504 24.2134 6.03909 24.2134 12.6665ZM12.6434 9.52544C11.4762 10.0109 9.1435 11.0157 5.64526 12.5398C5.0772 12.7657 4.77963 12.9867 4.75254 13.2028C4.70675 13.568 5.16408 13.7118 5.78684 13.9076C5.87155 13.9343 5.95932 13.9619 6.04931 13.9911C6.662 14.1903 7.48619 14.4233 7.91466 14.4325C8.30331 14.4409 8.7371 14.2807 9.21601 13.9519C12.4845 11.7455 14.1718 10.6303 14.2777 10.6063C14.3524 10.5893 14.456 10.568 14.5261 10.6304C14.5963 10.6927 14.5894 10.8108 14.582 10.8425C14.5367 11.0357 12.7415 12.7046 11.8125 13.5683C11.5229 13.8375 11.3174 14.0285 11.2754 14.0721C11.1814 14.1699 11.0855 14.2623 10.9933 14.3511C10.4241 14.8998 9.99728 15.3113 11.017 15.9833C11.507 16.3062 11.8991 16.5733 12.2903 16.8397C12.7175 17.1306 13.1437 17.4208 13.695 17.7822C13.8354 17.8743 13.9696 17.9699 14.1003 18.063C14.5974 18.4175 15.0441 18.7359 15.596 18.6852C15.9166 18.6556 16.2478 18.3541 16.416 17.4549C16.8136 15.3297 17.595 10.725 17.7756 8.82748C17.7914 8.66124 17.7715 8.44848 17.7555 8.35508C17.7395 8.26168 17.7061 8.12861 17.5847 8.03011C17.441 7.91344 17.219 7.88884 17.1197 7.89059C16.6684 7.89854 15.9759 8.13932 12.6434 9.52544Z" fill="white"/>
</svg>
