<svg width="141" height="40" viewBox="0 0 141 40" fill="none" xmlns="http://www.w3.org/2000/svg">
<path fill-rule="evenodd" clip-rule="evenodd" d="M22.1659 29.7274H16.0659C6.54988 29.7274 13.4632 9.51605 21.4746 9.51605H31.1126C32.6579 9.51605 35.3826 9.80076 36.7246 5.97805L38.7986 0.0407104H25.5819C18.4246 0.0407104 12.8532 2.56205 8.82722 6.79139C1.87321 14.03 -0.485453 25.3354 1.18188 30.7441C2.76788 35.746 7.07856 39.0401 13.8292 39.1214L19.0752 39.162H25.5412L27.1272 34.4041C28.3066 31.0288 25.6632 29.7274 22.1659 29.7274ZM96.4233 21.35L98.4157 14.8841H77.1472C73.6093 14.8841 72.0232 15.8601 71.4133 17.8933L69.4206 24.3594H90.6893C94.2272 24.3594 95.8133 23.3834 96.4233 21.35ZM66.2486 32.7368L64.2559 39.2027H85.5246C89.022 39.2027 90.6486 38.2267 91.2587 36.1934L93.2513 29.7274H71.9827C68.4853 29.7274 66.8992 30.7034 66.2486 32.7368ZM101.385 6.54739L103.378 0.0813766H82.1086C78.5707 0.0813766 76.9846 1.05738 76.3746 3.09071L74.382 9.55672H95.6507C99.1484 9.55672 100.734 8.58072 101.385 6.54739ZM69.258 7.84872C68.3632 1.83005 65.1506 0.0813766 57.3426 0.0813766H43.1093L34.8133 24.3594H40.0592C43.1906 24.3594 44.7766 24.4001 46.4439 19.9267L49.9006 9.51605H55.1872C59.7013 9.51605 58.6846 15.1688 56.4072 20.6587C54.374 25.498 50.8359 29.7681 46.5659 29.7681H37.7413C34.2032 29.7681 32.5766 30.7441 31.9259 32.7774L29.7299 39.2434H36.1959L42.5399 39.2027C48.1519 39.162 52.7472 38.7554 58.1152 33.9161C63.8086 28.7514 70.3966 15.494 69.258 7.84872ZM140.75 0.0407104H128.428L116.838 12.3627C115.496 13.786 114.113 15.2093 112.771 16.8768H112.649L118.424 0.0407104H108.38L94.8373 39.2027H104.882L109.192 26.8808L113.665 23.0987L117.204 34.2414C118.302 37.698 119.441 39.2027 121.881 39.2027H129.567L121.677 17.3241L140.75 0.0407104Z" fill="#1AB248"/>
</svg>
