<svg width="135" height="31" viewBox="0 0 135 31" fill="none" xmlns="http://www.w3.org/2000/svg">
<mask id="mask0_33_2876" style="mask-type:luminance" maskUnits="userSpaceOnUse" x="0" y="0" width="135" height="31">
<path d="M135 0.666504H0V30.6665H135V0.666504Z" fill="white"/>
</mask>
<g mask="url(#mask0_33_2876)">
<path d="M72.6081 13.784C72.4865 16.9419 78.0811 17.1848 82.7027 18.5209C85.8649 19.3711 89.2703 22.286 88.1757 25.9298C87.3243 28.9662 83.6757 30.0593 81 30.4237C77.5946 30.9095 74.3108 30.6666 71.8784 29.2091C69.6892 27.9945 68.9595 26.537 68.9595 26.537L69.3243 26.1727C70.5406 28.116 73.8243 30.1808 77.5946 30.1808C81.3649 30.3022 85.8649 28.7233 85.8649 25.9298C85.9865 23.7435 83.0676 22.4075 78.8108 21.3144C75.7703 20.5856 71.2703 19.8569 70.0541 16.4561C69.2027 13.9055 70.5406 11.3549 72.7297 10.0188C74.6757 8.92571 76.9865 8.56134 79.2973 8.56134C81.4865 8.43988 83.7973 9.16863 85.3784 10.1403C87.0811 11.2334 88.1757 12.3265 88.1757 12.3265L87.8108 12.6909C87.8108 12.6909 86.7162 11.5978 85.0135 10.6261C83.6757 9.89737 82.0946 9.16863 80.3919 9.16863C76.3784 8.92571 72.7297 10.2617 72.6081 13.784Z" fill="white"/>
<path d="M127.459 5.03897H125.513L128.067 0.666504H130.013L127.459 5.03897Z" fill="white"/>
<path d="M3.16216 29.8163V8.8042H0V30.3022H16.9054V29.8163H3.16216Z" fill="white"/>
<path d="M121.257 29.8163V19.8568H133.054V19.2495H121.257V9.41149H134.757V8.8042H118.094V30.3022H135V29.8163H121.257Z" fill="white"/>
<path d="M110.797 8.8042V19.2495H97.5406V8.8042H94.3784V30.3022H97.5406V19.8568H110.797V30.3022H111.284V8.8042H110.797Z" fill="white"/>
<path d="M62.2702 8.80407V25.5652L45.8513 8.4397V30.302H46.3378V14.3911L62.7567 30.6664V8.80407H62.2702Z" fill="white"/>
<path d="M36.4866 30.302H40.0136L29.919 8.4397L20.6758 30.302H21.2839L23.3515 25.3223H34.0542L36.4866 30.302ZM23.7163 24.8365L28.4596 13.5409L33.9325 24.8365H23.7163Z" fill="white"/>
</g>
</svg>
