<svg width="135" height="30" viewBox="0 0 135 30" fill="none" xmlns="http://www.w3.org/2000/svg">
<mask id="mask0_19_158" style="mask-type:luminance" maskUnits="userSpaceOnUse" x="0" y="0" width="135" height="30">
<path d="M135 0H0V30H135V0Z" fill="white"/>
</mask>
<g mask="url(#mask0_19_158)">
<path d="M72.6081 13.1174C72.4865 16.2753 78.0811 16.5182 82.7027 17.8543C85.8649 18.7045 89.2703 21.6194 88.1757 25.2632C87.3243 28.2996 83.6757 29.3927 81 29.7571C77.5946 30.2429 74.3108 30 71.8784 28.5425C69.6892 27.3279 68.9595 25.8705 68.9595 25.8705L69.3243 25.5061C70.5406 27.4494 73.8243 29.5142 77.5946 29.5142C81.3649 29.6356 85.8649 28.0567 85.8649 25.2632C85.9865 23.0769 83.0676 21.7409 78.8108 20.6478C75.7703 19.919 71.2703 19.1903 70.0541 15.7895C69.2027 13.2389 70.5406 10.6883 72.7297 9.35223C74.6757 8.25912 76.9865 7.89474 79.2973 7.89474C81.4865 7.77329 83.7973 8.50203 85.3784 9.47369C87.0811 10.5668 88.1757 11.6599 88.1757 11.6599L87.8108 12.0243C87.8108 12.0243 86.7162 10.9312 85.0135 9.95952C83.6757 9.23078 82.0946 8.50203 80.3919 8.50203C76.3784 8.25912 72.7297 9.59515 72.6081 13.1174Z" fill="#222222"/>
<path d="M127.459 4.37247H125.513L128.067 0H130.013L127.459 4.37247Z" fill="#222222"/>
<path d="M3.16216 29.1498V8.13766H0V29.6356H16.9054V29.1498H3.16216Z" fill="#222222"/>
<path d="M121.257 29.1498V19.1903H133.054V18.583H121.257V8.74495H134.757V8.13766H118.094V29.6356H135V29.1498H121.257Z" fill="#222222"/>
<path d="M110.797 8.13766V18.583H97.5406V8.13766H94.3784V29.6356H97.5406V19.1903H110.797V29.6356H111.284V8.13766H110.797Z" fill="#222222"/>
<path d="M62.2702 8.13766V24.8988L45.8513 7.77328V29.6356H46.3378V13.7247L62.7567 30V8.13766H62.2702Z" fill="#222222"/>
<path d="M36.4866 29.6356H40.0136L29.919 7.77328L20.6758 29.6356H21.2839L23.3515 24.6559H34.0542L36.4866 29.6356ZM23.7163 24.17L28.4596 12.8745L33.9325 24.17H23.7163Z" fill="#222222"/>
</g>
</svg>
