<svg width="50" height="50" viewBox="0 0 50 50" fill="none" xmlns="http://www.w3.org/2000/svg">
<path d="M14.0625 34.8957C13.3201 34.8957 12.7005 34.6473 12.2036 34.1504C11.7068 33.6535 11.4583 33.0339 11.4583 32.2915C11.4583 31.5704 11.7068 30.9561 12.2036 30.4488C12.7005 29.9412 13.3201 29.6874 14.0625 29.6874C14.7837 29.6874 15.3979 29.9412 15.9052 30.4488C16.4128 30.9561 16.6667 31.5704 16.6667 32.2915C16.6667 33.0339 16.4128 33.6535 15.9052 34.1504C15.3979 34.6473 14.7837 34.8957 14.0625 34.8957ZM14.0625 20.3124C13.3201 20.3124 12.7005 20.0639 12.2036 19.5671C11.7068 19.0702 11.4583 18.4506 11.4583 17.7082C11.4583 16.987 11.7068 16.3728 12.2036 15.8655C12.7005 15.3579 13.3201 15.104 14.0625 15.104C14.7837 15.104 15.3979 15.3579 15.9052 15.8655C16.4128 16.3728 16.6667 16.987 16.6667 17.7082C16.6667 18.4506 16.4128 19.0702 15.9052 19.5671C15.3979 20.0639 14.7837 20.3124 14.0625 20.3124ZM21.3542 26.5624V23.4374H28.6458V26.5624H21.3542ZM35.012 36.9587L32.4557 35.228C33.4012 33.7217 34.1278 32.1092 34.6354 30.3905C35.1431 28.6717 35.3969 26.8749 35.3969 24.9999C35.3969 22.7082 35.0302 20.5521 34.2969 18.5316C33.5635 16.5112 32.5332 14.6716 31.2057 13.0129L33.5818 11.0176C35.1415 12.9433 36.3547 15.094 37.2214 17.4697C38.088 19.8457 38.5213 22.3558 38.5213 24.9999C38.5213 27.2329 38.2116 29.3495 37.5922 31.3499C36.9724 33.3506 36.1123 35.2202 35.012 36.9587Z" fill="#1A2633"/>
</svg>
