<svg width="249" height="35" viewBox="0 0 249 35" fill="none" xmlns="http://www.w3.org/2000/svg">
<path d="M0.0639648 34.2691V1.72285H18.1174V34.2691H13.0428V6.44242H5.15943V34.2691H0.0639648ZM31.848 0.991945C28.8826 0.991945 26.5541 2.53729 24.8522 5.62798C23.1606 8.73956 22.3149 12.8326 22.3149 17.8863C22.3149 23.1071 23.1293 27.2837 24.7686 30.364C26.3871 33.4547 28.7364 35 31.8375 35C35.0013 35 37.476 33.3816 39.251 30.1447C40.9425 27.054 41.7988 22.9505 41.7988 17.8446C41.7988 12.7909 40.9217 8.71868 39.1675 5.62798C37.4133 2.53729 34.97 0.991945 31.848 0.991945ZM27.1493 17.9281C27.1493 14.3571 27.5461 11.4544 28.3501 9.21987C29.1227 6.97494 30.2922 5.84726 31.848 5.84726C33.5708 5.84726 34.8134 6.99582 35.586 9.26163C36.2752 11.256 36.6197 14.1169 36.6197 17.8446C36.6197 21.4365 36.223 24.381 35.419 26.6885C34.6254 28.9857 33.4351 30.1342 31.848 30.1342C30.3131 30.1342 29.1541 28.9857 28.3501 26.6468C27.4788 23.8251 27.0732 20.8803 27.1493 17.9281ZM57.0121 1.72285H62.1075V34.2691H57.0121V18.2413H52.4178C50.3545 18.2925 48.3544 17.527 46.8525 16.1113C46.1022 15.467 45.5034 14.665 45.0991 13.7625C44.6948 12.86 44.4948 11.8793 44.5135 10.8905V1.71241H49.5672V10.2536C49.5672 11.1202 49.8178 11.8198 50.3295 12.3419C51.0291 13.031 52.0837 13.3756 53.4828 13.3756H57.0121V1.72285ZM75.2012 34.2691H70.1371V6.5364H65.2922V1.73329H80.0878V6.5364H75.2012V34.2691ZM84.0138 1.72285H92.2418C94.6746 1.72285 96.5854 2.30758 97.9846 3.47703C99.7388 4.93884 100.616 7.23598 100.616 10.3893L103.247 34.2691H98.1517L96.5437 18.0638H88.5768L88.0234 34.2691H82.9384L84.0034 1.72285H84.0138ZM88.6708 13.2921H95.9694C95.7292 10.7861 95.322 9.0528 94.7477 8.11307C94.0586 7.02715 92.91 6.49463 91.302 6.49463H88.8587L88.6708 13.2921ZM121.53 33.6948V1.14857H127.273C131.116 1.14857 133.883 2.82965 135.585 6.18138C136.719 8.49981 137.281 11.0563 137.224 13.6366C137.224 17.6775 136.556 20.7578 135.209 22.8565C134.029 24.6524 132.536 25.5609 130.719 25.5609C129.983 25.5506 129.257 25.3939 128.583 25.0999C127.909 24.8059 127.301 24.3804 126.793 23.8484V33.6948H121.53ZM126.751 5.58622V15.631C126.751 17.1972 126.991 18.4084 127.482 19.2646C127.941 20.0999 128.526 20.5176 129.205 20.5176C129.925 20.5176 130.541 20.0477 131.063 19.0976C131.585 18.1474 131.836 16.79 131.836 15.0254C131.836 11.7676 131.439 9.36605 130.625 7.83115C129.821 6.30668 128.704 5.53401 127.273 5.53401C127.1 5.56097 126.926 5.5784 126.751 5.58622ZM149.346 0.417661C146.381 0.417661 144.053 1.96301 142.351 5.0537C140.659 8.17572 139.813 12.2584 139.813 17.3121C139.813 22.5433 140.628 26.7094 142.278 29.7897C143.886 32.8804 146.245 34.4257 149.346 34.4257C152.5 34.4257 154.964 32.8073 156.75 29.5704C158.441 26.4797 159.297 22.3762 159.297 17.2703C159.297 12.2166 158.42 8.14439 156.666 5.0537C154.912 1.96301 152.468 0.417661 149.346 0.417661ZM144.648 17.3538C144.648 13.7828 145.055 10.8801 145.849 8.64558C146.621 6.40066 147.78 5.27297 149.346 5.27297C151.069 5.27297 152.312 6.42154 153.085 8.68735C153.774 10.6817 154.118 13.5427 154.118 17.2703C154.118 20.8622 153.721 23.8067 152.917 26.1143C152.113 28.4218 150.934 29.5704 149.346 29.5704C147.812 29.5704 146.653 28.401 145.849 26.0725C144.978 23.2506 144.572 20.3059 144.648 17.3538ZM167.891 17.5313C167.891 20.977 168.83 23.7962 170.731 25.989C172.767 28.3174 175.617 29.4869 179.293 29.4869V34.6972C173.947 34.6972 169.749 33.0579 166.711 29.7897C163.808 26.6781 162.357 22.6059 162.357 17.5731C162.357 12.3732 163.693 8.29057 166.377 5.32518C169.3 2.05698 173.581 0.417661 179.209 0.417661V5.63842C175.45 5.63842 172.579 6.78699 170.605 9.08413C168.789 11.1724 167.891 13.9916 167.891 17.5418V17.5313ZM187.677 17.5313C187.677 20.977 188.617 23.7962 190.517 25.989C192.543 28.3174 195.404 29.4869 199.079 29.4869V34.6972C193.733 34.6972 189.536 33.0579 186.497 29.7897C183.595 26.6781 182.143 22.6059 182.143 17.5731C182.143 12.3732 183.48 8.29057 186.153 5.32518C189.087 2.05698 193.368 0.417661 198.996 0.417661V5.63842C195.237 5.63842 192.366 6.78699 190.392 9.08413C188.575 11.1724 187.677 13.9916 187.677 17.5418V17.5313ZM221.811 0L223.137 33.6948H217.958L217.102 11.5901L208.404 20.3088L208.446 33.6948H203.277V1.14857H208.446V13.1668L221.811 0ZM246.902 0L248.228 33.6948H243.049L242.182 11.5901L233.495 20.3088L233.537 33.6948H228.368V1.14857H233.537V13.1668L246.902 0Z" fill="#1A34E8"/>
</svg>
