<svg width="17" height="17" viewBox="0 0 17 17" fill="none" xmlns="http://www.w3.org/2000/svg">
<path d="M7.71353 1.71562C8.20262 0.724622 9.61574 0.724622 10.1048 1.71562L11.5379 4.61929C11.7321 5.01282 12.1075 5.28558 12.5418 5.34868L15.7462 5.81431C16.8398 5.97322 17.2765 7.31719 16.4851 8.08857L14.1664 10.3488C13.8522 10.6551 13.7088 11.0964 13.783 11.5289L14.3303 14.7204C14.5171 15.8096 13.3739 16.6402 12.3957 16.126L9.52963 14.6192C9.1412 14.415 8.67716 14.415 8.28872 14.6192L5.42262 16.126C4.44445 16.6402 3.30121 15.8096 3.48802 14.7204L4.0354 11.5289C4.10958 11.0964 3.96619 10.6551 3.65194 10.3488L1.33321 8.08857C0.541858 7.31719 0.978538 5.97322 2.07217 5.81431L5.27656 5.34868C5.71084 5.28558 6.08627 5.01282 6.28048 4.61929L7.71353 1.71562Z" fill="#A2225C"/>
</svg>
