<svg width="17" height="17" viewBox="0 0 17 17" fill="none" xmlns="http://www.w3.org/2000/svg">
<path d="M8.31136 2.01066C8.5559 1.51516 9.26246 1.51516 9.507 2.01066L10.9401 4.91434C11.2314 5.50462 11.7945 5.91376 12.4459 6.00842L15.6503 6.47405C16.1971 6.5535 16.4155 7.22549 16.0198 7.61118L13.7011 9.87137C13.2297 10.3308 13.0146 10.9928 13.1259 11.6416L13.6733 14.8331C13.7667 15.3777 13.195 15.793 12.706 15.5359L9.83986 14.0291C9.25721 13.7228 8.56114 13.7228 7.9785 14.0291L5.1124 15.5359C4.62331 15.793 4.05169 15.3777 4.1451 14.8331L4.69247 11.6416C4.80375 10.9928 4.58865 10.3308 4.11728 9.87137L1.79856 7.61118C1.40288 7.22549 1.62122 6.5535 2.16803 6.47405L5.37243 6.00842C6.02385 5.91376 6.58698 5.50462 6.8783 4.91434L8.31136 2.01066Z" stroke="#A2225C" stroke-width="1.33333"/>
</svg>
