<svg width="40" height="40" viewBox="0 0 40 40" fill="none" xmlns="http://www.w3.org/2000/svg">
<path d="M20.0072 0C14.7041 0 9.61345 2.10844 5.86658 5.85781C2.11658 9.60719 0.00720215 14.6978 0.00720215 20C0.00720215 25.3022 2.11658 30.3928 5.86658 34.1422C9.61345 37.8916 14.7041 40 20.0072 40C25.3103 40 30.401 37.8916 34.1478 34.1422C37.8978 30.3928 40.0072 25.3022 40.0072 20C40.0072 14.6978 37.8978 9.60719 34.1478 5.85781C30.401 2.10844 25.3103 0 20.0072 0Z" fill="url(#paint0_linear_177_1840)"/>
<path d="M9.0604 19.7887C14.8917 17.2487 18.7791 15.574 20.7228 14.7649C26.2791 12.4546 27.4322 12.0534 28.1853 12.0399C28.3509 12.0371 28.7197 12.0781 28.9603 12.2728C29.1603 12.4368 29.2166 12.6587 29.2447 12.8143C29.2697 12.9699 29.3041 13.3246 29.276 13.6015C28.976 16.764 27.6729 24.4384 27.0104 27.9806C26.7323 29.4794 26.1791 29.9819 25.6447 30.0309C24.4822 30.1378 23.6009 29.2634 22.4759 28.5262C20.7166 27.3721 19.7229 26.654 18.0135 25.5281C16.0385 24.2268 17.3197 23.5115 18.4447 22.3428C18.7385 22.0368 23.8572 17.3821 23.9541 16.9599C23.9666 16.9071 23.9791 16.7103 23.8604 16.6065C23.7447 16.5024 23.5728 16.5381 23.4478 16.5662C23.2696 16.6062 20.4603 18.4649 15.0103 22.1421C14.2134 22.6903 13.4915 22.9574 12.8415 22.9434C12.129 22.9281 10.7541 22.5396 9.73225 22.2078C8.48225 21.8006 7.48533 21.5853 7.57283 20.8937C7.61658 20.5337 8.11353 20.1653 9.0604 19.7887Z" fill="white"/>
<defs>
<linearGradient id="paint0_linear_177_1840" x1="20.0072" y1="0" x2="20.0072" y2="40" gradientUnits="userSpaceOnUse">
<stop stop-color="#2AABEE"/>
<stop offset="1" stop-color="#229ED9"/>
</linearGradient>
</defs>
</svg>
