<svg width="40" height="40" viewBox="0 0 40 40" fill="none" xmlns="http://www.w3.org/2000/svg">
<path fill-rule="evenodd" clip-rule="evenodd" d="M11.5562 8.88506C11.6034 8.88505 11.6505 8.88505 11.6975 8.88507C12.0265 8.88521 12.3498 8.88671 12.6388 8.899" fill="white"/>
<path fill-rule="evenodd" clip-rule="evenodd" d="M9.08853 36.7752L9.81904 37.2083C12.8886 39.0299 16.4077 39.9933 19.9965 39.9952H20.0043C31.0257 39.9952 39.9958 31.0272 40 20.0051L39.9999 19.9293C39.9805 14.6182 37.9049 9.6271 34.1484 5.86785C30.3724 2.08987 25.3525 0.00757027 20.0112 0.00548984C9.28447 0.00548984 0.505961 8.48689 0.0277178 19.0907C0.0143783 19.3884 0.0075815 19.6878 0.0074679 19.9887C0.0060116 23.7657 1.06259 27.4443 3.06451 30.6266L3.54034 31.3831L3.54033 31.3883L1.51983 38.7596L9.08853 36.7752ZM12.6388 8.899C13.0671 8.91662 13.541 8.93665 13.9914 9.93775C14.2988 10.6214 14.8158 11.8953 15.2282 12.9114C15.5328 13.6619 15.7803 14.2719 15.8442 14.3996C15.9944 14.7003 16.0947 15.0514 15.8941 15.4526C15.864 15.5128 15.8362 15.5696 15.8096 15.6239C15.6592 15.9311 15.5487 16.1568 15.2938 16.4551C15.1934 16.5723 15.0896 16.6985 14.9858 16.8247C14.7787 17.0766 14.5717 17.3284 14.3918 17.5078C14.0904 17.8075 13.7772 18.1331 14.1278 18.7342C14.4786 19.3361 15.685 21.3038 17.4721 22.8971C19.3916 24.6084 21.0592 25.3324 21.9062 25.7002C22.0727 25.7724 22.2075 25.831 22.3062 25.8805C22.9073 26.1812 23.2581 26.131 23.6087 25.7293C23.9595 25.3283 25.1108 23.9747 25.5115 23.3736C25.9125 22.7718 26.3133 22.8719 26.8644 23.0723C27.4153 23.2729 30.3706 24.7273 30.972 25.0279C31.0889 25.0864 31.1983 25.1391 31.2997 25.1881C31.7196 25.3907 32.0033 25.5275 32.1242 25.7293C32.2745 25.9805 32.2745 27.1837 31.7734 28.5872C31.2727 29.9909 28.8182 31.3445 27.716 31.4446L27.6565 31.4503C27.5705 31.4589 27.4844 31.469 27.3964 31.4794C26.3778 31.5993 25.0923 31.7507 20.5025 29.9408C14.8567 27.7143 11.1336 22.1968 10.3636 21.0557C10.3004 20.962 10.2571 20.8978 10.2342 20.8673L10.2271 20.8578C9.9017 20.4228 7.77974 17.5857 7.77974 14.6503C7.77974 11.8818 9.14052 10.4307 9.76658 9.76304C9.80933 9.71745 9.84865 9.67552 9.88388 9.63707C10.4346 9.03552 11.0858 8.88507 11.4868 8.88507L11.5562 8.88506L11.6975 8.88507C12.0265 8.88521 12.3498 8.88671 12.6388 8.899Z" fill="white"/>
<path fill-rule="evenodd" clip-rule="evenodd" d="M9.08853 36.7752L9.81904 37.2083C12.8886 39.0299 16.4077 39.9933 19.9965 39.9952H20.0043C31.0257 39.9952 39.9958 31.0272 40 20.0051L39.9999 19.9293C39.9805 14.6182 37.9049 9.6271 34.1484 5.86785C30.3724 2.08987 25.3525 0.00757027 20.0112 0.00548984C9.28447 0.00548984 0.505961 8.48689 0.0277178 19.0907C0.0143783 19.3884 0.0075815 19.6878 0.0074679 19.9887C0.0060116 23.7657 1.06259 27.4443 3.06451 30.6266L3.54034 31.3831L3.54033 31.3883L1.51983 38.7596L9.08853 36.7752ZM12.6388 8.899C13.0671 8.91662 13.541 8.93665 13.9914 9.93775C14.2988 10.6214 14.8158 11.8953 15.2282 12.9114C15.5328 13.6619 15.7803 14.2719 15.8442 14.3996C15.9944 14.7003 16.0947 15.0514 15.8941 15.4526C15.864 15.5128 15.8362 15.5696 15.8096 15.6239C15.6592 15.9311 15.5487 16.1568 15.2938 16.4551C15.1934 16.5723 15.0896 16.6985 14.9858 16.8247C14.7787 17.0766 14.5717 17.3284 14.3918 17.5078C14.0904 17.8075 13.7772 18.1331 14.1278 18.7342C14.4786 19.3361 15.685 21.3038 17.4721 22.8971C19.3916 24.6084 21.0592 25.3324 21.9062 25.7002C22.0727 25.7724 22.2075 25.831 22.3062 25.8805C22.9073 26.1812 23.2581 26.131 23.6087 25.7293C23.9595 25.3283 25.1108 23.9747 25.5115 23.3736C25.9125 22.7718 26.3133 22.8719 26.8644 23.0723C27.4153 23.2729 30.3706 24.7273 30.972 25.0279C31.0889 25.0864 31.1983 25.1391 31.2997 25.1881C31.7196 25.3907 32.0033 25.5275 32.1242 25.7293C32.2745 25.9805 32.2745 27.1837 31.7734 28.5872C31.2727 29.9909 28.8182 31.3445 27.716 31.4446L27.6565 31.4503C27.5705 31.4589 27.4844 31.469 27.3964 31.4794C26.3778 31.5993 25.0923 31.7507 20.5025 29.9408C14.8567 27.7143 11.1336 22.1968 10.3636 21.0557C10.3004 20.962 10.2571 20.8978 10.2342 20.8673L10.2271 20.8578C9.9017 20.4228 7.77974 17.5857 7.77974 14.6503C7.77974 11.8818 9.14052 10.4307 9.76658 9.76304C9.80933 9.71745 9.84865 9.67552 9.88388 9.63707C10.4346 9.03552 11.0858 8.88507 11.4868 8.88507L11.5562 8.88506L11.6975 8.88507C12.0265 8.88521 12.3498 8.88671 12.6388 8.899Z" fill="url(#paint0_linear_177_1841)"/>
<path d="M13.9914 9.93775C13.541 8.93665 13.0671 8.91662 12.6388 8.899C12.3498 8.88671 12.0265 8.88521 11.6975 8.88507L11.5562 8.88506L11.4868 8.88507C11.0858 8.88507 10.4346 9.03552 9.88388 9.63707C9.84865 9.67552 9.80933 9.71745 9.76658 9.76304C9.14052 10.4307 7.77974 11.8818 7.77974 14.6503C7.77974 17.5857 9.9017 20.4228 10.2271 20.8578L10.2342 20.8673C10.2571 20.8978 10.3004 20.962 10.3636 21.0557C11.1336 22.1968 14.8567 27.7143 20.5025 29.9408C25.0923 31.7507 26.3778 31.5993 27.3964 31.4794C27.4844 31.469 27.5705 31.4589 27.6565 31.4503L27.716 31.4446C28.8182 31.3445 31.2727 29.9909 31.7734 28.5872C32.2745 27.1837 32.2745 25.9805 32.1242 25.7293C32.0033 25.5275 31.7196 25.3907 31.2997 25.1881C31.1983 25.1391 31.0889 25.0864 30.972 25.0279C30.3706 24.7273 27.4153 23.2729 26.8644 23.0723C26.3133 22.8719 25.9125 22.7718 25.5115 23.3736C25.1108 23.9747 23.9595 25.3283 23.6087 25.7293C23.2581 26.131 22.9073 26.1812 22.3062 25.8805C22.2075 25.831 22.0727 25.7724 21.9062 25.7002C21.0592 25.3324 19.3916 24.6084 17.4721 22.8971C15.685 21.3038 14.4786 19.3361 14.1278 18.7342C13.7772 18.1331 14.0904 17.8075 14.3918 17.5078C14.5717 17.3284 14.7787 17.0766 14.9858 16.8247C15.0896 16.6985 15.1934 16.5723 15.2938 16.4551C15.5487 16.1568 15.6592 15.9311 15.8096 15.6239C15.8362 15.5696 15.864 15.5128 15.8941 15.4526C16.0947 15.0514 15.9944 14.7003 15.8442 14.3996C15.7803 14.2719 15.5328 13.6619 15.2282 12.9114C14.8158 11.8953 14.2988 10.6214 13.9914 9.93775Z" fill="white"/>
<defs>
<linearGradient id="paint0_linear_177_1841" x1="20.0038" y1="39.9959" x2="20.0038" y2="-0.00420333" gradientUnits="userSpaceOnUse">
<stop stop-color="#20B038"/>
<stop offset="1" stop-color="#60D66A"/>
</linearGradient>
</defs>
</svg>
