<svg width="24" height="25" viewBox="0 0 24 25" fill="none" xmlns="http://www.w3.org/2000/svg">
<path d="M23.9918 12.1261C23.8798 9.061 22.5882 6.15769 20.3865 4.02234C18.1849 1.88698 15.2434 0.684683 12.1764 0.666507H12.1185C10.053 0.664973 8.02287 1.2012 6.22757 2.22244C4.43231 3.24367 2.93386 4.7147 1.87966 6.49081C0.825458 8.26692 0.251843 10.2869 0.215247 12.352C0.178652 14.4171 0.680338 16.456 1.67095 18.2684L0.619074 24.5627C0.617362 24.5756 0.618418 24.5887 0.622178 24.6012C0.62593 24.6137 0.632306 24.6252 0.640866 24.6351C0.649426 24.6449 0.659978 24.6527 0.671818 24.6582C0.683658 24.6636 0.696522 24.6664 0.709546 24.6665H0.727642L6.9532 23.2817C8.56175 24.0539 10.3233 24.4547 12.1076 24.4542C12.221 24.4542 12.3344 24.4542 12.4478 24.4542C14.0173 24.4094 15.5625 24.0542 16.9941 23.4091C18.4257 22.7639 19.7153 21.8417 20.7885 20.6955C21.8618 19.5494 22.6975 18.202 23.2473 16.7312C23.797 15.2604 24.0501 13.6952 23.9918 12.1261ZM12.3886 22.3854C12.2946 22.3854 12.2005 22.3854 12.1076 22.3854C10.5306 22.3874 8.97623 22.01 7.57564 21.2853L7.25719 21.1188L3.03524 22.1164L3.81449 17.845L3.63355 17.5386C2.76935 16.0652 2.30386 14.3921 2.28294 12.684C2.26202 10.976 2.68638 9.29196 3.51423 7.79784C4.34209 6.30369 5.54486 5.05097 7.00411 4.16304C8.46335 3.27511 10.1287 2.78261 11.8362 2.73406C11.9311 2.73406 12.0264 2.73406 12.1221 2.73406C14.7001 2.7417 17.1718 3.76176 19.0049 5.57448C20.8379 7.38719 21.8855 9.84748 21.9219 12.4252C21.9582 15.0029 20.9805 17.4917 19.1994 19.3555C17.4182 21.2192 14.9762 22.3087 12.3995 22.3891L12.3886 22.3854Z" fill="white"/>
<path d="M7.97224 6.81855C7.82528 6.82142 7.68037 6.85375 7.5461 6.91363C7.41184 6.97351 7.29095 7.05972 7.19061 7.16716C6.90713 7.45788 6.11461 8.15752 6.06877 9.62676C6.02294 11.096 7.04947 12.5496 7.19301 12.7534C7.33657 12.9572 9.1556 16.131 12.152 17.418C13.9132 18.1768 14.6852 18.3071 15.1858 18.3071C15.3921 18.3071 15.5477 18.2854 15.7105 18.2757C16.2593 18.242 17.4982 17.6075 17.7684 16.9175C18.0386 16.2275 18.0567 15.6244 17.9855 15.5037C17.9144 15.3831 17.7189 15.2962 17.4246 15.1418C17.1303 14.9874 15.6864 14.2154 15.415 14.1068C15.3143 14.06 15.206 14.0318 15.0953 14.0236C15.0232 14.0274 14.9531 14.0487 14.8911 14.0857C14.8291 14.1227 14.777 14.1743 14.7394 14.2359C14.4982 14.5363 13.9446 15.1888 13.7587 15.3771C13.7182 15.4238 13.6682 15.4615 13.6121 15.4877C13.556 15.5139 13.495 15.528 13.433 15.5291C13.319 15.524 13.2074 15.494 13.1062 15.441C12.2315 15.0696 11.4341 14.5376 10.7551 13.8728C10.1207 13.2476 9.58248 12.5317 9.158 11.7486C8.994 11.4446 9.158 11.2878 9.3076 11.1455C9.4572 11.0031 9.6176 10.8065 9.772 10.6364C9.89872 10.4911 10.0043 10.3287 10.0857 10.1539C10.1278 10.0728 10.149 9.98244 10.1475 9.89108C10.1461 9.79964 10.1219 9.71012 10.0772 9.63036C10.0061 9.47836 9.47408 7.98381 9.2244 7.38429C9.02176 6.87163 8.78048 6.85474 8.56936 6.83906C8.39568 6.827 8.19664 6.82097 7.9976 6.81493H7.97224" fill="white"/>
</svg>
