<svg width="85" height="21" viewBox="0 0 85 21" fill="none" xmlns="http://www.w3.org/2000/svg">
<path d="M8.26293 4.80769H7.09073C4.96099 4.80769 3.83965 5.88671 3.83965 7.48436C3.83965 9.29608 4.61507 10.135 6.21367 11.2145L7.52524 12.0987L3.7324 17.7644H0.90918L4.30974 12.6955C2.34587 11.2945 1.2481 9.93905 1.2481 7.62771C1.2481 4.73645 3.25359 2.78174 7.06327 2.78174H10.855V17.7654H8.25378V4.80769H8.26293ZM21.5778 6.92257V17.7654H19.0166V13.2405H15.5891V17.7654H13.028V6.92257H15.5891V11.2145H19.0166V6.92257H21.5778ZM33.1523 20.2376H30.7788V17.7563H25.0222V20.2376H22.6488V15.7354H23.4516C24.3532 13.9232 24.5317 10.4968 24.5317 7.84652V6.91852H32.0096V15.7354H33.1523V20.2376ZM29.4484 8.94852H26.7357V9.26957C26.7357 11.1433 26.5403 14.0972 25.825 15.7391H29.4484V8.94852ZM38.9079 17.9704C35.6334 17.9704 33.7766 16.141 33.7766 12.3664C33.7766 9.091 35.2672 6.70083 38.3909 6.70083C40.9526 6.70083 42.6122 8.12785 42.6122 11.8943V13.2501H36.4277C36.534 15.0623 37.2484 15.9456 39.1226 15.9456C40.3722 15.9456 41.7102 15.4725 42.5043 14.9286V17.0247C41.7554 17.5425 40.5501 17.9704 38.9079 17.9704ZM36.4277 11.357H40.0059V11.1443C40.0059 9.78845 39.6151 8.73532 38.3453 8.73532C37.1232 8.72461 36.4989 9.63475 36.4277 11.357ZM46.9043 12.4377V17.7654H44.3344V6.92257H46.9043V11.9197L50.5322 6.92257H53.1208L49.4979 11.9197L53.6113 17.7563H50.6971L46.9043 12.4377ZM53.4637 12.3486C53.4637 9.04619 55.1681 6.69979 58.4456 6.69979C59.7155 6.69979 60.6678 6.91351 61.2031 7.21617V9.39478C60.6852 9.07312 59.7124 8.72461 58.7218 8.72461C57.0439 8.72461 56.1159 9.92989 56.1159 12.286C56.1159 14.5261 56.875 15.9533 58.7045 15.9533C59.7836 15.9533 60.5605 15.677 61.2031 15.2216V17.3101C60.5778 17.7654 59.7378 17.9791 58.5518 17.9791C55.1233 17.9704 53.4627 15.9716 53.4627 12.3486H53.4637Z" fill="black"/>
<path fill-rule="evenodd" clip-rule="evenodd" d="M76.7032 0.292969C72.2863 0.294955 68.7061 3.87737 68.7061 8.29487C68.7061 10.4134 69.5483 12.4483 71.0447 13.948C72.4936 15.397 75.9033 17.4931 76.1052 19.6946C76.1354 20.0236 76.3746 20.293 76.7035 20.293C77.0325 20.293 77.2723 20.0236 77.3019 19.6946C77.5038 17.4927 80.9108 15.4004 82.3587 13.9524C83.8577 12.4533 84.7017 10.4164 84.7017 8.29487C84.7017 3.87737 81.1204 0.294005 76.7032 0.292969Z" fill="#FF4433"/>
<path fill-rule="evenodd" clip-rule="evenodd" d="M76.703 11.1002C78.2531 11.0998 79.5102 9.84299 79.5102 8.29292C79.5102 6.74276 78.2531 5.4856 76.703 5.4856C75.1532 5.4856 73.896 6.74276 73.896 8.29292C73.896 9.84299 75.1532 11.0998 76.703 11.0998V11.1002Z" fill="black" fill-opacity="0.25098"/>
</svg>
